# xmcd
# Track frame offsets:
# 150
# 12470
# 25730
# 40017
# 51370
# 65255
# 79802
# 90465
# 101625
# 118525
# 134337
# 152090
# 168462
# 184530
# 196612
# 209340
# 227792
# 241075
# 251727
# 266997
# 284165
#
# Disc length: 3962 seconds
# Revision: 0
# Processed by: cddbd v1.5.1PL0 Copyright (c) Steve Scherf et al.
# Submitted via: VisiTrax 2.9.10.228 - For more info visit www.synapsa.com
#
DISCID=230f7815
DTITLE=Various Artist - The Most Awesome Line Dancing Album 6
DYEAR=2001
DGENRE=
TTITLE0=Sharon "B" - Blue Finger Lou
TTITLE1=Deanna Carter - If This Is Love
TTITLE2=Keith Urban - I Wanna Be Your Man (Forever)
TTITLE3=The Ranch - Some Days You Gotta Dance
TTITLE4=Chris Cagle - Rock The Boat
TTITLE5=Asleep at the Wheel - Corine, Corina
TTITLE6=Jerry Kilgore - Lonesome Love List
TTITLE7=Julie Reeves - Whatever
TTITLE8=Ronnie Milsap - Livin' On Love
TTITLE9=George Ducas - Hello Cruel World
TTITLE10=Tanya Tucker - Texas (When I Die)
TTITLE11=Barbara Mandrell - If We Fall, We Will Fall
TTITLE12=Wild Rose - Lonesome Highway (To the end of the Rainbow)
TTITLE13=Pirates of the Mississippi - Ain't Got No Idea
TTITLE14=Glen Campbell - Southern Nights
TTITLE15=Susan Ashton - Think Of Me
TTITLE16=Trace Adkins - See Jane Run
TTITLE17=Mel McDaniel - Louisiana Saturday Night
TTITLE18=Tyler England with Steve Wariner - Should've Asked Her Father
TTITLE19=Chris LeDoux - Billy the Kid
TTITLE20=Suzy Bogguss - I Want To Be A Cowboys Sweetheart
EXTD=
EXTT0=
EXTT1=
EXTT2=
EXTT3=
EXTT4=
EXTT5=
EXTT6=
EXTT7=
EXTT8=
EXTT9=
EXTT10=
EXTT11=
EXTT12=
EXTT13=
EXTT14=
EXTT15=
EXTT16=
EXTT17=
EXTT18=
EXTT19=
EXTT20=
PLAYORDER=
